<?xml version="1.0" encoding="utf-8"?>
<!-- Generator: Adobe Illustrator 22.1.0, SVG Export Plug-In . SVG Version: 6.00 Build 0)  -->
<svg version="1.1" id="Layer_1" xmlns="http://www.w3.org/2000/svg" xmlns:xlink="http://www.w3.org/1999/xlink" x="0px" y="0px"
	 viewBox="0 0 50 50" style="enable-background:new 0 0 50 50;" xml:space="preserve">
<path d="M21.4,1c-1.5,0-3,0.3-4.1,1.4c-1.1,1.1-1.4,2.6-1.4,4.2H8.6c-1,0-1.8,0.8-1.8,1.8H5v3.7h40V8.4h-1.8c0-1-0.8-1.8-1.8-1.8
	h-7.2c0-1.6-0.3-3.1-1.4-4.2C31.6,1.3,30.2,1,28.6,1H21.4z M21.4,4.8h7.3c1,0,1.3,0.2,1.4,0.3s0.3,0.4,0.3,1.4H19.6
	c0-1,0.2-1.3,0.3-1.4S20.4,4.8,21.4,4.8z M8.6,14v29.5c0,3,2.5,5.5,5.5,5.5h21.8c3,0,5.5-2.5,5.5-5.5V14H8.6z M15.9,19.5h3.6v22.1
	h-3.6V19.5z M23.2,19.5h3.6v22.1h-3.6V19.5z M30.5,19.5h3.6v22.1h-3.6V19.5z"/>
</svg>
