<svg xmlns="http://www.w3.org/2000/svg" width="14" height="15" viewBox="0 0 14 15">
    <path fill-rule="nonzero" d="M0 10.714s1.422-2.857 7-2.857 7 2.857 7 2.857v2.143C14 14.041 13.016 15 11.79 15H2.21C.99 15 0 14.038 0 12.857v-2.143zm1.474 2.143c0 .393.33.714.737.714h9.578c.41 0 .737-.317.737-.714V11.16a3.365 3.365 0 0 0-.78-.703C10.685 9.735 9.145 9.285 7 9.285c-2.144 0-3.684.45-4.747 1.17a3.365 3.365 0 0 0-.78.704v1.698zm7.368-9.643c0-.986-.824-1.785-1.842-1.785-1.018 0-1.842.799-1.842 1.785v.357C5.158 4.358 5.82 5 6.632 5h.736c.815 0 1.474-.637 1.474-1.426v-.36zm1.474.357c0 1.579-1.509 2.858-2.948 2.858h-.736c-1.621 0-2.948-1.28-2.948-2.858v-.357C3.684 1.44 5.17 0 7 0c1.831 0 3.316 1.44 3.316 3.214v.357z"/>
</svg>
